<svg xmlns="http://www.w3.org/2000/svg" viewBox="0 0 32 32">
  <defs>
    <linearGradient id="bg" x1="0" y1="0" x2="1" y2="1">
      <stop offset="0%" stop-color="#d8f3dc"/>
      <stop offset="100%" stop-color="#b7e4c7"/>
    </linearGradient>
    <linearGradient id="leafFill" x1="0.5" y1="0" x2="0.5" y2="1">
      <stop offset="0%" stop-color="#52b788"/>
      <stop offset="100%" stop-color="#2d6a4f"/>
    </linearGradient>
  </defs>
  <rect width="32" height="32" rx="8" fill="url(#bg)"/>
  <!-- Leaf body -->
  <path d="M16 4 C22 4, 27 10, 27 16 C27 23, 22 28, 16 28 C14 26, 11 22, 11 16 C11 10, 14 4, 16 4Z" fill="url(#leafFill)"/>
  <!-- Central vein -->
  <path d="M16 5 L16 27" stroke="#1b4332" stroke-width="1" stroke-linecap="round" fill="none" opacity="0.6"/>
  <!-- Side veins -->
  <path d="M16 10 L21 8" stroke="#1b4332" stroke-width="0.7" stroke-linecap="round" fill="none" opacity="0.4"/>
  <path d="M16 14 L22 12" stroke="#1b4332" stroke-width="0.7" stroke-linecap="round" fill="none" opacity="0.4"/>
  <path d="M16 18 L22 16" stroke="#1b4332" stroke-width="0.7" stroke-linecap="round" fill="none" opacity="0.4"/>
  <path d="M16 22 L20 20" stroke="#1b4332" stroke-width="0.7" stroke-linecap="round" fill="none" opacity="0.4"/>
  <path d="M16 10 L11 8" stroke="#1b4332" stroke-width="0.7" stroke-linecap="round" fill="none" opacity="0.4"/>
  <path d="M16 14 L10 12" stroke="#1b4332" stroke-width="0.7" stroke-linecap="round" fill="none" opacity="0.4"/>
  <path d="M16 18 L10 16" stroke="#1b4332" stroke-width="0.7" stroke-linecap="round" fill="none" opacity="0.4"/>
  <path d="M16 22 L12 20" stroke="#1b4332" stroke-width="0.7" stroke-linecap="round" fill="none" opacity="0.4"/>
  <!-- Stem -->
  <path d="M16 28 Q17 30, 18 30" stroke="#2d6a4f" stroke-width="1.3" stroke-linecap="round" fill="none"/>
</svg>
